<svg width="73.000000" height="20.000000" viewBox="0 0 73 20" fill="none" xmlns="http://www.w3.org/2000/svg" xmlns:xlink="http://www.w3.org/1999/xlink">
	<desc>
			Created with Pixso.
	</desc>
	<defs>
		<clipPath id="clip3_54">
			<rect id="title" width="73.000000" height="20.000000" fill="white" fill-opacity="0"/>
		</clipPath>
	</defs>
	<g clip-path="url(#clip3_54)">
		<path id="sVanilla" d="M54.54 5.99Q54.6 6.01 54.67 6.01L55.95 6.01Q56.05 6.01 56.13 5.97Q56.17 5.94 56.2 5.91Q56.25 5.86 56.28 5.79Q56.3 5.74 56.3 5.68L56.3 4.67Q56.3 4.6 56.27 4.54Q56.25 4.48 56.2 4.43Q56.17 4.4 56.13 4.38Q56.05 4.33 55.95 4.33L54.67 4.33Q54.6 4.33 54.54 4.35Q54.48 4.38 54.43 4.43Q54.39 4.48 54.37 4.53Q54.34 4.59 54.34 4.67L54.34 5.68Q54.34 5.74 54.36 5.8Q54.38 5.86 54.43 5.91Q54.48 5.96 54.54 5.99ZM58.3 14.47Q58.37 14.5 58.44 14.5L59.6 14.5Q59.68 14.5 59.75 14.47Q59.8 14.44 59.84 14.4Q59.89 14.35 59.91 14.29Q59.94 14.23 59.94 14.16L59.94 4.89Q59.94 4.82 59.91 4.75Q59.89 4.7 59.84 4.65Q59.79 4.61 59.74 4.58Q59.68 4.56 59.6 4.56L58.44 4.56Q58.37 4.56 58.31 4.58Q58.25 4.61 58.2 4.65Q58.15 4.7 58.13 4.75Q58.1 4.82 58.1 4.89L58.1 14.16Q58.1 14.23 58.13 14.29Q58.15 14.35 58.2 14.4Q58.25 14.44 58.3 14.47ZM62.01 14.47Q62.08 14.5 62.15 14.5L63.31 14.5Q63.39 14.5 63.46 14.47Q63.51 14.44 63.55 14.4Q63.6 14.35 63.62 14.29Q63.65 14.23 63.65 14.16L63.65 4.89Q63.65 4.82 63.62 4.75Q63.6 4.7 63.55 4.65Q63.5 4.61 63.45 4.58Q63.39 4.56 63.31 4.56L62.15 4.56Q62.08 4.56 62.02 4.58Q61.96 4.61 61.91 4.65Q61.86 4.7 61.84 4.75Q61.81 4.82 61.81 4.89L61.81 14.16Q61.81 14.23 61.84 14.29Q61.86 14.35 61.91 14.4Q61.96 14.44 62.01 14.47ZM31.72 14.39Q31.85 14.5 32.06 14.5L33.61 14.5Q33.82 14.5 33.95 14.39Q33.95 14.39 33.95 14.38Q34 14.34 34.04 14.29Q34.1 14.21 34.14 14.1L37.13 5.12Q37.16 5.04 37.16 4.99Q37.16 4.92 37.13 4.87Q37.11 4.82 37.07 4.78Q37.01 4.72 36.94 4.71Q36.9 4.7 36.87 4.7L35.64 4.7Q35.45 4.7 35.35 4.79Q35.34 4.79 35.33 4.8Q35.23 4.9 35.2 5L32.83 12.21L30.47 5Q30.44 4.9 30.33 4.8Q30.32 4.79 30.31 4.78Q30.21 4.7 30.03 4.7L28.8 4.7Q28.73 4.7 28.67 4.72Q28.63 4.75 28.59 4.78Q28.56 4.81 28.54 4.84Q28.51 4.91 28.51 4.99Q28.51 5.04 28.54 5.12L31.53 14.1Q31.57 14.22 31.64 14.3Q31.67 14.35 31.72 14.38Q31.72 14.39 31.72 14.39ZM23.66 14.44Q24.25 14.64 25.09 14.64Q26.16 14.64 26.88 14.35Q27.6 14.06 27.97 13.56Q28.15 13.31 28.25 13.02Q28.34 12.74 28.34 12.42Q28.34 12.03 28.21 11.68Q28.16 11.58 28.11 11.48Q27.88 11.05 27.32 10.72Q26.77 10.39 25.83 10.23Q25.01 10.06 24.6 9.9Q24.2 9.75 24.06 9.57Q24.02 9.52 24 9.47Q23.93 9.33 23.93 9.16Q23.93 9 23.99 8.87Q24.05 8.71 24.21 8.58Q24.49 8.35 25.02 8.35Q25.44 8.35 25.7 8.46Q25.96 8.57 26.14 8.74Q26.33 8.9 26.48 9.04Q26.53 9.08 26.59 9.1Q26.6 9.11 26.61 9.11Q26.66 9.13 26.71 9.13L27.75 9.13Q27.8 9.13 27.85 9.12Q27.92 9.1 27.98 9.04Q28.01 9.01 28.03 8.97Q28.07 8.9 28.06 8.8Q28.05 8.59 27.85 8.3Q27.65 8.01 27.28 7.73Q26.91 7.45 26.35 7.27Q25.79 7.07 25.04 7.07Q24.07 7.07 23.42 7.4Q22.77 7.72 22.44 8.22Q22.19 8.59 22.13 8.98Q22.11 9.12 22.11 9.26Q22.11 9.8 22.34 10.21Q22.35 10.22 22.36 10.24Q22.61 10.66 23.13 10.94Q23.65 11.22 24.43 11.4Q25.23 11.57 25.67 11.72Q26.1 11.86 26.26 12.04Q26.28 12.07 26.3 12.1Q26.42 12.27 26.42 12.52Q26.42 12.7 26.35 12.84Q26.26 13.02 26.05 13.14Q25.68 13.36 25.14 13.36Q24.72 13.36 24.43 13.24Q24.15 13.12 23.95 12.96Q23.75 12.79 23.57 12.63Q23.5 12.56 23.45 12.55Q23.41 12.54 23.35 12.54L22.25 12.54Q22.21 12.54 22.18 12.54Q22.09 12.56 22.02 12.63Q21.98 12.66 21.96 12.7Q21.92 12.78 21.93 12.87Q21.94 13.07 22.12 13.36Q22.31 13.65 22.68 13.95Q23.06 14.24 23.66 14.44ZM38.46 14.35Q39.05 14.64 39.78 14.64Q40.38 14.64 40.82 14.49Q41.26 14.34 41.57 14.11Q41.88 13.87 42.06 13.61L42.06 14.16Q42.06 14.24 42.09 14.31Q42.11 14.36 42.15 14.4Q42.18 14.43 42.2 14.44Q42.28 14.5 42.4 14.5L43.53 14.5Q43.61 14.5 43.67 14.47Q43.73 14.44 43.77 14.4Q43.82 14.35 43.84 14.29Q43.87 14.23 43.87 14.16L43.87 9.76Q43.87 9.22 43.7 8.73Q43.61 8.46 43.46 8.23Q43.33 8.04 43.17 7.87Q42.8 7.51 42.19 7.29Q41.58 7.07 40.7 7.07Q39.89 7.07 39.32 7.29Q38.74 7.5 38.38 7.8Q38.03 8.1 37.85 8.42Q37.68 8.74 37.66 8.96Q37.66 9.09 37.72 9.17Q37.73 9.18 37.74 9.19Q37.74 9.2 37.75 9.2Q37.83 9.27 37.97 9.27L39.08 9.27Q39.18 9.27 39.25 9.23Q39.34 9.19 39.4 9.09Q39.47 8.94 39.57 8.81Q39.7 8.66 39.87 8.55Q40.19 8.35 40.69 8.35Q41.4 8.35 41.7 8.67Q41.7 8.67 41.7 8.67Q41.99 8.99 41.99 9.58L41.99 9.87L40.07 10.15Q38.78 10.35 37.98 10.93Q37.58 11.23 37.38 11.63Q37.19 12.01 37.19 12.49Q37.19 12.81 37.29 13.1Q37.37 13.35 37.53 13.58Q37.57 13.63 37.6 13.68Q37.94 14.09 38.46 14.35L38.46 14.35ZM45.86 14.47Q45.92 14.5 46 14.5L47.23 14.5Q47.3 14.5 47.37 14.47Q47.42 14.44 47.46 14.4Q47.51 14.35 47.54 14.29Q47.56 14.23 47.56 14.16L47.56 10.31Q47.56 9.57 47.92 9.12Q47.96 9.08 47.99 9.04Q48.12 8.9 48.27 8.8Q48.64 8.57 49.16 8.57Q49.76 8.57 50.13 8.86Q50.23 8.94 50.31 9.04Q50.71 9.5 50.71 10.31L50.71 14.16Q50.71 14.23 50.74 14.3Q50.76 14.35 50.81 14.4Q50.85 14.44 50.91 14.47Q50.97 14.5 51.05 14.5L52.28 14.5Q52.36 14.5 52.42 14.47Q52.47 14.44 52.52 14.4Q52.57 14.35 52.59 14.29Q52.62 14.23 52.62 14.16L52.62 10.23Q52.62 9.25 52.27 8.54Q52.04 8.07 51.67 7.74Q51.5 7.58 51.3 7.46Q51.28 7.45 51.25 7.43Q50.64 7.07 49.82 7.07Q48.98 7.07 48.41 7.38Q47.84 7.68 47.48 8.12L47.48 7.55Q47.48 7.48 47.45 7.41Q47.43 7.36 47.38 7.31Q47.33 7.26 47.26 7.24Q47.21 7.21 47.14 7.21L46 7.21Q45.93 7.21 45.87 7.24Q45.81 7.26 45.76 7.31Q45.71 7.36 45.68 7.41Q45.66 7.48 45.66 7.55L45.66 14.16Q45.66 14.23 45.68 14.29Q45.71 14.35 45.76 14.4Q45.8 14.44 45.86 14.47ZM66.31 14.35Q66.9 14.64 67.62 14.64Q68.23 14.64 68.67 14.49Q69.11 14.34 69.42 14.11Q69.72 13.87 69.9 13.61L69.9 14.16Q69.9 14.24 69.93 14.31Q69.96 14.36 70 14.4Q70.02 14.43 70.05 14.44Q70.13 14.5 70.24 14.5L71.38 14.5Q71.46 14.5 71.52 14.47Q71.57 14.44 71.61 14.4Q71.66 14.35 71.69 14.29Q71.71 14.23 71.71 14.16L71.71 9.76Q71.71 9.22 71.55 8.73Q71.45 8.46 71.3 8.23Q71.18 8.04 71.01 7.87Q70.65 7.51 70.04 7.29Q69.43 7.07 68.55 7.07Q67.74 7.07 67.16 7.29Q66.59 7.5 66.23 7.8Q65.87 8.1 65.7 8.42Q65.52 8.74 65.51 8.96Q65.51 9.09 65.57 9.17Q65.58 9.18 65.58 9.19Q65.59 9.2 65.59 9.2Q65.67 9.27 65.82 9.27L66.92 9.27Q67.02 9.27 67.1 9.23Q67.19 9.19 67.25 9.09Q67.32 8.94 67.42 8.81Q67.54 8.66 67.71 8.55Q68.03 8.35 68.53 8.35Q69.25 8.35 69.54 8.67L69.54 8.67Q69.84 8.99 69.84 9.58L69.84 9.87L67.92 10.15Q66.63 10.35 65.83 10.93Q65.42 11.23 65.22 11.63Q65.03 12.01 65.03 12.49Q65.03 12.81 65.13 13.1Q65.22 13.35 65.38 13.58Q65.41 13.63 65.45 13.68Q65.78 14.09 66.31 14.35L66.31 14.35ZM54.59 14.47Q54.66 14.5 54.73 14.5L55.89 14.5Q56.01 14.5 56.09 14.44Q56.11 14.42 56.14 14.4Q56.18 14.36 56.2 14.31Q56.23 14.24 56.23 14.16L56.23 7.55Q56.23 7.47 56.2 7.4Q56.17 7.35 56.14 7.31Q56.11 7.29 56.08 7.26Q56 7.21 55.89 7.21L54.73 7.21Q54.66 7.21 54.6 7.24Q54.54 7.26 54.49 7.31Q54.45 7.36 54.42 7.41Q54.39 7.48 54.39 7.55L54.39 14.16Q54.39 14.23 54.42 14.29Q54.44 14.35 54.49 14.4Q54.54 14.44 54.59 14.47ZM41.02 13.16Q40.67 13.31 40.25 13.31Q40.02 13.31 39.8 13.25Q39.72 13.23 39.64 13.2Q39.4 13.11 39.22 12.95Q39.19 12.92 39.15 12.88Q39.08 12.8 39.04 12.71Q38.97 12.55 38.97 12.35Q38.97 12.24 39 12.14Q39.08 11.87 39.37 11.67Q39.78 11.39 40.6 11.26L42 11.04L42 11.33Q42 12 41.77 12.44Q41.6 12.78 41.33 12.98Q41.24 13.05 41.14 13.1Q41.08 13.13 41.02 13.16ZM68.86 13.16Q68.51 13.31 68.1 13.31Q67.86 13.31 67.64 13.25Q67.56 13.23 67.48 13.2Q67.24 13.11 67.07 12.95Q67.03 12.92 67 12.88Q66.93 12.8 66.89 12.71Q66.81 12.55 66.81 12.35Q66.81 12.24 66.84 12.14Q66.92 11.87 67.22 11.67Q67.62 11.39 68.45 11.26L69.85 11.04L69.85 11.33Q69.85 12 69.62 12.44Q69.44 12.78 69.17 12.98Q69.09 13.05 68.99 13.1Q68.93 13.13 68.86 13.16Z" fill="#000000" fill-opacity="1.000000" fill-rule="evenodd"/>
		<rect id="centerIcon" width="20.000000" height="20.000000" fill="#FFFFFF" fill-opacity="0"/>
		<path id="path" d="M10.02 13.4C8.03 13.95 6.21 13.61 4.58 12.4C4.11 12.04 3.71 11.62 3.38 11.15C2.67 10.04 2.36 8.84 2.46 7.55C4.21 7.05 5.86 7.26 7.41 8.17C7.38 8.35 7.35 8.54 7.34 8.73C7.4 10.72 8.3 12.28 10.02 13.4Z" fill="#FFFFFF" fill-opacity="1.000000" fill-rule="nonzero"/>
		<path id="path" d="M4.58 12.4C4.11 12.04 3.71 11.62 3.38 11.15C2.67 10.04 2.36 8.84 2.46 7.55C4.21 7.05 5.86 7.26 7.41 8.17C7.38 8.35 7.35 8.54 7.34 8.73C7.4 10.72 8.3 12.28 10.02 13.4C8.03 13.95 6.21 13.61 4.58 12.4Z" stroke="#7ABA78" stroke-opacity="1.000000" stroke-width="0.250000" stroke-linejoin="round"/>
		<path id="path" d="M5.15 16.06C3.05 16.01 1.4 15.15 0.21 13.49C0.18 13.43 0.18 13.38 0.21 13.33C1 12.25 2.05 11.48 3.34 11.03C4.46 12.69 6.16 13.56 8.23 13.52C8.82 13.52 9.41 13.44 9.98 13.28C10.02 13.27 10.06 13.29 10.08 13.33C10.11 13.38 10.11 13.43 10.08 13.48C8.88 15.14 7.26 16 5.15 16.06Z" fill="#7ABA78" fill-opacity="1.000000" fill-rule="nonzero"/>
		<path id="path" d="M3.38 11.15C4.51 12.85 6.12 13.68 8.23 13.64C8.84 13.64 9.43 13.56 10.02 13.4C8.85 15.03 7.24 15.87 5.17 15.93C3.1 15.88 1.48 15.03 0.3 13.4C1.09 12.32 2.08 11.57 3.38 11.15ZM3.38 10.9C2.03 11.35 0.86 12.14 0.04 13.26C-0.03 13.35 -0.03 13.44 0.04 13.54C1.26 15.27 2.97 16.15 5.15 16.18C7.3 16.12 8.99 15.24 10.23 13.56C10.26 13.51 10.28 13.45 10.28 13.4C10.28 13.23 10.19 13.15 10.02 13.15C9.46 13.31 8.81 13.38 8.23 13.38C6.92 13.4 5.76 13.03 4.74 12.25C4.3 11.89 3.91 11.48 3.6 11.01C3.54 10.93 3.47 10.9 3.38 10.9Z" fill="#FFFFFF" fill-opacity="1.000000" fill-rule="nonzero"/>
		<path id="path" d="M12.63 8.17L12.16 8.5C10.6 9.79 9.9 11.42 10.07 13.4C8.33 12.29 7.42 10.73 7.34 8.73C7.33 8.54 7.33 8.35 7.34 8.17C7.6 6.42 8.49 5.06 10.02 4.08C11.52 5.07 12.39 6.43 12.63 8.17Z" fill="#FFFFFF" fill-opacity="1.000000" fill-rule="nonzero"/>
		<path id="path" d="M12.16 8.5C10.6 9.79 9.9 11.42 10.07 13.4C8.33 12.29 7.42 10.73 7.34 8.73C7.33 8.54 7.33 8.35 7.34 8.17C7.6 6.42 8.49 5.06 10.02 4.08C11.52 5.07 12.39 6.43 12.63 8.17L12.16 8.5Z" stroke="#7ABA78" stroke-opacity="1.000000" stroke-width="0.250000" stroke-linejoin="round"/>
		<path id="path" d="M16.66 11.15C16.09 10.94 15.5 10.84 14.89 10.83C12.81 10.88 11.18 11.74 10.02 13.4C9.85 11.42 10.55 9.79 12.11 8.5L12.57 8.17C14.13 7.27 15.79 7.06 17.54 7.55C17.64 8.83 17.34 10.03 16.66 11.15Z" fill="#FFFFFF" fill-opacity="1.000000" fill-rule="nonzero"/>
		<path id="path" d="M14.89 10.83C12.81 10.88 11.18 11.74 10.02 13.4C9.85 11.42 10.55 9.79 12.11 8.5L12.57 8.17C14.13 7.27 15.79 7.06 17.54 7.55C17.64 8.83 17.34 10.03 16.66 11.15C16.09 10.94 15.5 10.84 14.89 10.83Z" stroke="#7ABA78" stroke-opacity="1.000000" stroke-width="0.250000" stroke-linejoin="round"/>
		<path id="path" d="M8.23 13.77C6.83 13.78 5.59 13.37 4.49 12.54C4.01 12.16 3.61 11.72 3.27 11.22C2.54 10.08 2.23 8.85 2.34 7.53C2.92 7.36 3.6 7.18 4.21 7.18C5.38 7.16 6.46 7.46 7.44 8.06C7.49 8.08 7.51 8.12 7.5 8.18C7.49 8.36 7.49 8.54 7.5 8.73C7.55 10.67 8.42 12.19 10.09 13.29C10.12 13.33 10.12 13.37 10.09 13.42C10.08 13.46 10.06 13.5 10.01 13.52C9.43 13.68 8.83 13.76 8.23 13.77Z" fill="#7ABA78" fill-opacity="1.000000" fill-rule="nonzero"/>
		<path id="path" d="M4.21 7.31C5.34 7.3 6.39 7.58 7.34 8.17C7.33 8.35 7.33 8.54 7.34 8.73C7.4 10.72 8.3 12.28 10.02 13.4C9.43 13.56 8.84 13.64 8.23 13.64C6.12 13.68 4.51 12.85 3.38 11.15C2.67 10.04 2.36 8.84 2.46 7.55C3.03 7.39 3.62 7.31 4.21 7.31ZM4.21 7.06C3.57 7.05 2.95 7.14 2.34 7.31C2.23 7.34 2.17 7.41 2.16 7.52C2.07 8.87 2.41 10.13 3.17 11.28C3.51 11.79 3.92 12.24 4.41 12.63C5.52 13.49 6.8 13.91 8.23 13.89C8.86 13.89 9.49 13.81 10.1 13.64C10.2 13.6 10.26 13.53 10.28 13.43C10.29 13.32 10.26 13.24 10.17 13.19C8.54 12.11 7.7 10.62 7.64 8.73C7.63 8.55 7.63 8.37 7.64 8.2C7.66 8.09 7.62 8.01 7.53 7.96C6.52 7.34 5.41 7.04 4.21 7.06Z" fill="#FFFFFF" fill-opacity="1.000000" fill-rule="nonzero"/>
		<path id="path" d="M10.02 13.52C8.27 12.36 7.3 10.76 7.25 8.73C7.24 8.54 7.24 8.35 7.25 8.16C7.51 6.38 8.41 4.98 9.95 3.97L10.09 3.97C11.62 4.99 12.5 6.39 12.75 8.16C12.78 8.19 12.78 8.23 12.75 8.27C12.6 8.37 12.45 8.48 12.29 8.6C10.76 9.86 10.07 11.46 10.21 13.39C10.23 13.43 10.23 13.47 10.21 13.51L10.02 13.52Z" fill="#7ABA78" fill-opacity="1.000000" fill-rule="nonzero"/>
		<path id="path" d="M10.02 4.08C11.52 5.07 12.39 6.43 12.63 8.17L12.16 8.5C10.6 9.79 9.9 11.42 10.07 13.4C8.33 12.29 7.42 10.73 7.34 8.73C7.33 8.54 7.33 8.35 7.34 8.17C7.6 6.42 8.49 5.06 10.02 4.08ZM10.02 3.83C9.97 3.81 9.93 3.81 9.88 3.83C8.3 4.87 7.39 6.31 7.15 8.14C7.14 8.33 7.14 8.53 7.15 8.73C7.21 10.79 8.12 12.42 9.87 13.61C9.92 13.62 9.97 13.62 10.02 13.61C10.07 13.62 10.11 13.62 10.16 13.61C10.25 13.55 10.29 13.48 10.28 13.38C10.16 11.48 10.85 9.91 12.37 8.69C12.51 8.57 12.66 8.47 12.81 8.38C12.9 8.32 12.94 8.24 12.93 8.14C12.68 6.3 11.76 4.86 10.16 3.83C10.11 3.81 10.07 3.81 10.02 3.83Z" fill="#FFFFFF" fill-opacity="1.000000" fill-rule="nonzero"/>
		<path id="path" d="M9.89 13.41C9.72 11.38 10.45 9.71 12.07 8.41C12.23 8.29 12.4 8.18 12.55 8.08C13.54 7.47 14.61 7.17 15.79 7.19C16.41 7.18 17.03 7.26 17.63 7.44C17.71 8.76 17.47 10.06 16.77 11.2L16.63 11.3C16.07 11.11 15.49 11.02 14.9 11.03C12.88 11.07 11.29 11.88 10.13 13.47L9.93 13.77L9.89 13.41Z" fill="#7ABA78" fill-opacity="1.000000" fill-rule="nonzero"/>
		<path id="path" d="M15.79 7.31C16.4 7.3 17 7.38 17.59 7.55C17.67 8.84 17.36 10.04 16.66 11.15C16.09 10.94 15.5 10.84 14.89 10.83C12.81 10.88 11.18 11.74 10.02 13.4C9.85 11.42 10.55 9.79 12.11 8.5L12.57 8.17C13.53 7.59 14.66 7.3 15.79 7.31ZM15.7 7.06C14.51 7.04 13.41 7.34 12.4 7.96L11.91 8.3C10.29 9.65 9.57 11.36 9.76 13.42L9.83 14.13L10.24 13.54C11.36 11.98 12.9 11.17 14.87 11.12C15.45 11.11 16.02 11.2 16.58 11.39L16.78 11.45L16.88 11.28C17.61 10.13 17.93 8.88 17.85 7.55L17.85 7.38L17.68 7.31C17.07 7.13 16.34 7.05 15.7 7.06Z" fill="#FFFFFF" fill-opacity="1.000000" fill-rule="nonzero"/>
		<path id="path" d="M14.87 16.06C12.76 15.99 11.11 15.13 9.92 13.47C9.88 13.42 9.88 13.37 9.92 13.33C11.11 11.67 12.76 10.81 14.87 10.75C15.5 10.74 16.12 10.83 16.72 11.03C18.02 11.48 19.06 12.24 19.85 13.32C19.88 13.37 19.88 13.42 19.85 13.47C18.66 15.13 16.97 15.99 14.87 16.06Z" fill="#7ABA78" fill-opacity="1.000000" fill-rule="nonzero"/>
		<path id="path" d="M14.87 10.83C15.47 10.82 16.07 10.92 16.64 11.11C17.93 11.53 18.98 12.28 19.77 13.36C18.6 14.99 16.98 15.83 14.92 15.89C12.84 15.86 11.21 15.03 10.02 13.4C11.18 11.75 12.79 10.89 14.87 10.83ZM14.87 10.58C12.71 10.65 11.02 11.54 9.8 13.26C9.74 13.35 9.74 13.44 9.8 13.54C11.03 15.23 12.72 16.11 14.87 16.18C17.03 16.11 18.72 15.23 19.96 13.54C20.01 13.44 20.01 13.35 19.96 13.26C19.14 12.14 18.06 11.36 16.72 10.91C16.12 10.71 15.5 10.58 14.87 10.58Z" fill="#FFFFFF" fill-opacity="1.000000" fill-rule="nonzero"/>
	</g>
</svg>
