<svg xmlns="http://www.w3.org/2000/svg" viewBox="0 0 17.32 10.89"><defs><style>.cls-1{fill:#fff;}</style></defs><g id="Layer_2" data-name="Layer 2"><g id="whiteFgWithNoBroder"><path class="cls-1" d="M4,10.89A5.23,5.23,0,0,1,.26,9.28.84.84,0,0,1,0,8.66.91.91,0,0,1,.27,8a5.83,5.83,0,0,1,1.9-1.25A5.66,5.66,0,0,0,3.25,7.93,5.8,5.8,0,0,0,6.94,9.2h0a6.59,6.59,0,0,0,.95-.07A5.35,5.35,0,0,1,4,10.89Z"/><path class="cls-1" d="M6.94,8.6A5.13,5.13,0,0,1,3.63,7.47,5.3,5.3,0,0,1,2.54,6.25a5.8,5.8,0,0,1-.81-2.36.86.86,0,0,1,.19-.66.89.89,0,0,1,.62-.33,5.41,5.41,0,0,1,.59,0,5.16,5.16,0,0,1,2.71.72c0,.13,0,.26,0,.4A6,6,0,0,0,8,8.51,5.92,5.92,0,0,1,6.94,8.6Z"/><path class="cls-1" d="M8.35,8A5.42,5.42,0,0,1,6.43,4a4.58,4.58,0,0,1,0-.53A5.45,5.45,0,0,1,8,.27.89.89,0,0,1,9.3.27a5.42,5.42,0,0,1,1.54,3l-.32.23A6.08,6.08,0,0,0,8.35,8Z"/><path class="cls-1" d="M9,7.81A5.4,5.4,0,0,1,10.9,4a4.25,4.25,0,0,1,.43-.31,5.17,5.17,0,0,1,2.86-.81,5.41,5.41,0,0,1,.59,0,.89.89,0,0,1,.81,1,5.77,5.77,0,0,1-.7,2.16,5.45,5.45,0,0,0-1.56-.22A6,6,0,0,0,9,7.81Z"/><path class="cls-1" d="M13.31,10.89A5.52,5.52,0,0,1,9,8.66a5.52,5.52,0,0,1,4.28-2.23,5.09,5.09,0,0,1,1.62.26A5.61,5.61,0,0,1,17.05,8a.89.89,0,0,1,.27.63.88.88,0,0,1-.26.63,5.27,5.27,0,0,1-3.73,1.6Z"/></g></g></svg>