<svg xmlns="http://www.w3.org/2000/svg" viewBox="0 0 20 20">
    <defs>
        <style>
            .cls-1,.cls-3{fill:#fff;}.cls-1{stroke:#7aba78;stroke-linecap:round;stroke-linejoin:round;stroke-width:0.25px;}.cls-2{fill:#7aba78;}
        </style>
    </defs>
    <g id="Layer_2" data-name="Layer 2">
        <g id="noBorder">
            <path class="cls-1"
                  d="M9.57,9.57a5.86,5.86,0,0,1-5.22-1A5.48,5.48,0,0,1,3.2,7.32a6.06,6.06,0,0,1-.88-3.6,5.92,5.92,0,0,1,4.75.62A5.12,5.12,0,0,0,7,4.9,5.86,5.86,0,0,0,9.57,9.57Z"/>
            <path class="cls-2"
                  d="M4.9,12.23A5.92,5.92,0,0,1,.16,9.66a.19.19,0,0,1,0-.16,6.38,6.38,0,0,1,3-2.3h0a.13.13,0,0,1,.1.06A5.31,5.31,0,0,0,7.85,9.69h0a5.78,5.78,0,0,0,1.68-.24h0a.12.12,0,0,1,.1.05.16.16,0,0,1,0,.15,6,6,0,0,1-4.76,2.59Z"/>
            <path class="cls-3"
                  d="M3.2,7.32A5.38,5.38,0,0,0,7.85,9.81a6,6,0,0,0,1.72-.24A5.83,5.83,0,0,1,4.92,12.1h0A5.85,5.85,0,0,1,.25,9.57a6.08,6.08,0,0,1,3-2.25M9.57,9.57h0M3.2,7.07H3.12A6.41,6.41,0,0,0,0,9.43a.24.24,0,0,0,0,.28A6,6,0,0,0,4.9,12.35,6.17,6.17,0,0,0,9.77,9.73a.28.28,0,0,0,.05-.16.25.25,0,0,0-.25-.25H9.49a5.46,5.46,0,0,1-1.64.23A5.16,5.16,0,0,1,4.51,8.42a5.44,5.44,0,0,1-1.1-1.24.26.26,0,0,0-.21-.11Z"/>
            <path class="cls-1"
                  d="M12.07,4.34l-.45.33a5.85,5.85,0,0,0-2,4.9A5.86,5.86,0,0,1,7,4.9a5.12,5.12,0,0,1,0-.56A5.93,5.93,0,0,1,9.57.25,5.9,5.9,0,0,1,12.07,4.34Z"/>
            <path class="cls-1"
                  d="M15.94,7.32A5.26,5.26,0,0,0,14.24,7,5.83,5.83,0,0,0,9.57,9.57a5.85,5.85,0,0,1,2-4.9l.45-.33a6,6,0,0,1,4.76-.62A6.19,6.19,0,0,1,15.94,7.32Z"/>
            <path class="cls-2"
                  d="M7.85,9.94A5.69,5.69,0,0,1,4.27,8.71,5.47,5.47,0,0,1,3.1,7.39,6.07,6.07,0,0,1,2.2,3.7a.13.13,0,0,1,.08-.1A6.22,6.22,0,0,1,4,3.35a5.67,5.67,0,0,1,3.1.88.12.12,0,0,1,.05.12,4.93,4.93,0,0,0,0,.55A5.72,5.72,0,0,0,9.64,9.46a.13.13,0,0,1,0,.13.13.13,0,0,1-.08.1A6.2,6.2,0,0,1,7.85,9.94Z"/>
            <path class="cls-3"
                  d="M4,3.48a5.52,5.52,0,0,1,3,.86A5.12,5.12,0,0,0,7,4.9,5.86,5.86,0,0,0,9.57,9.57a6,6,0,0,1-1.72.24A5.38,5.38,0,0,1,3.2,7.32a6.06,6.06,0,0,1-.88-3.6A6,6,0,0,1,4,3.48m0-.25a6.42,6.42,0,0,0-1.8.25.25.25,0,0,0-.17.21A6.3,6.3,0,0,0,3,7.45,5.56,5.56,0,0,0,4.19,8.8a5.71,5.71,0,0,0,3.66,1.26,6.32,6.32,0,0,0,1.8-.25.27.27,0,0,0,.17-.21.25.25,0,0,0-.11-.24A5.6,5.6,0,0,1,7.29,4.9a4.58,4.58,0,0,1,0-.53.25.25,0,0,0-.11-.24A5.73,5.73,0,0,0,4,3.23Z"/>
            <path class="cls-2"
                  d="M9.57,9.69a.1.1,0,0,1-.07,0A6,6,0,0,1,6.91,4.9a5.27,5.27,0,0,1,0-.57A6.11,6.11,0,0,1,9.5.14h.14a6.1,6.1,0,0,1,2.55,4.19.1.1,0,0,1,0,.11c-.15.1-.29.21-.44.33a5.8,5.8,0,0,0-2,4.79.11.11,0,0,1,0,.12Z"/>
            <path class="cls-3"
                  d="M9.57.25a5.9,5.9,0,0,1,2.5,4.09l-.45.33a5.85,5.85,0,0,0-2,4.9A5.86,5.86,0,0,1,7,4.9a5.12,5.12,0,0,1,0-.56A5.93,5.93,0,0,1,9.57.25m0-.25a.2.2,0,0,0-.13,0A6.14,6.14,0,0,0,6.82,4.31a5.68,5.68,0,0,0,0,.59A6.17,6.17,0,0,0,9.43,9.78a.25.25,0,0,0,.14,0,.2.2,0,0,0,.13,0,.25.25,0,0,0,.12-.23,5.67,5.67,0,0,1,2-4.69,4.25,4.25,0,0,1,.43-.31.25.25,0,0,0,.11-.24A6.14,6.14,0,0,0,9.7,0a.2.2,0,0,0-.13,0Z"/>
            <path class="cls-2"
                  d="M9.45,9.58a5.88,5.88,0,0,1,2.09-5c.15-.12.31-.23.46-.33a5.59,5.59,0,0,1,3.1-.89,6.11,6.11,0,0,1,1.77.25l.08,0v.08a6.47,6.47,0,0,1-.91,3.68L16,7.47l-.09,0a5.16,5.16,0,0,0-1.66-.27A5.72,5.72,0,0,0,9.68,9.64l-.2.3Z"/>
            <path class="cls-3"
                  d="M15.1,3.48a6.08,6.08,0,0,1,1.73.24,6.19,6.19,0,0,1-.89,3.6A5.26,5.26,0,0,0,14.24,7h0A5.83,5.83,0,0,0,9.57,9.57a5.85,5.85,0,0,1,2-4.9l.45-.33a5.54,5.54,0,0,1,3-.86m0-.25h0a5.75,5.75,0,0,0-3.17.9l-.47.34A6.09,6.09,0,0,0,9.32,9.59l.07.71.39-.59a5.59,5.59,0,0,1,4.44-2.42,5,5,0,0,1,1.64.27l.19.06.1-.17a6.49,6.49,0,0,0,.93-3.73V3.55l-.16-.07a6.35,6.35,0,0,0-1.81-.25Z"/>
            <path class="cls-2"
                  d="M14.22,12.23A6,6,0,0,1,9.47,9.64a.12.12,0,0,1,0-.14,6,6,0,0,1,4.75-2.58A5.41,5.41,0,0,1,16,7.2a6.31,6.31,0,0,1,3,2.29.14.14,0,0,1,0,.15,6,6,0,0,1-4.75,2.59Z"/>
            <path class="cls-3"
                  d="M14.22,7h0a5.26,5.26,0,0,1,1.7.28,6.14,6.14,0,0,1,3,2.25,5.83,5.83,0,0,1-4.65,2.53h0A5.83,5.83,0,0,1,9.57,9.57,5.83,5.83,0,0,1,14.22,7m0-.25A6.15,6.15,0,0,0,9.36,9.43a.28.28,0,0,0,0,.28,6.15,6.15,0,0,0,4.86,2.64A6.17,6.17,0,0,0,19.1,9.71a.28.28,0,0,0,0-.28A6.39,6.39,0,0,0,16,7.08a5.63,5.63,0,0,0-1.78-.29Z"/>
        </g>
    </g>
</svg>