<?xml version="1.0" standalone="no"?><!DOCTYPE svg PUBLIC "-//W3C//DTD SVG 1.1//EN" "http://www.w3.org/Graphics/SVG/1.1/DTD/svg11.dtd"><svg t="1704771007096" class="icon" viewBox="0 0 1024 1024" version="1.1" xmlns="http://www.w3.org/2000/svg" p-id="5248" xmlns:xlink="http://www.w3.org/1999/xlink" width="200" height="200"><path d="M672 142.933h44.8c78.933 0 142.933 64 142.933 142.934V819.2c0 78.933-64 142.933-142.933 142.933H307.2c-78.933 0-142.933-64-142.933-142.933V285.867c0-78.934 64-142.934 142.933-142.934H352C364.8 96 409.6 61.867 460.8 61.867h102.4c51.2 0 96 34.133 108.8 81.066z m4.267 83.2c-4.267 57.6-53.334 102.4-113.067 102.4H460.8c-59.733 0-106.667-44.8-113.067-102.4H307.2c-34.133 0-61.867 27.734-61.867 61.867v533.333c0 34.134 27.734 61.867 61.867 61.867h409.6c34.133 0 61.867-27.733 61.867-61.867V288c0-34.133-27.734-61.867-61.867-61.867h-40.533z m-328.534 256c-23.466 0-40.533-19.2-40.533-40.533s19.2-40.533 40.533-40.533h328.534c23.466 0 40.533 19.2 40.533 40.533s-19.2 40.533-40.533 40.533H347.733z m0 162.134c-23.466 0-40.533-19.2-40.533-40.534s19.2-40.533 40.533-40.533h328.534c23.466 0 40.533 19.2 40.533 40.533s-19.2 40.534-40.533 40.534H347.733z m0 145.066c-23.466 0-40.533-19.2-40.533-40.533s19.2-40.533 40.533-40.533H512c23.467 0 40.533 19.2 40.533 40.533S535.467 789.333 512 789.333H347.733z m113.067-646.4c-17.067 0-29.867 12.8-29.867 29.867v40.533c0 17.067 12.8 29.867 29.867 29.867h102.4c17.067 0 29.867-12.8 29.867-29.867v-38.4c0-17.066-12.8-29.866-29.867-29.866H460.8z" fill="#707070" p-id="5249"></path></svg>