<svg width="200" height="200" viewBox="0 0 200 200" fill="none" xmlns="http://www.w3.org/2000/svg">
<path d="M68.5 88C76.1667 88 80 91.8333 80 99.5C80 107.167 76.1667 111 68.5 111C60.8333 111 57 107.167 57 99.5C57 91.8333 60.8333 88 68.5 88Z" fill="#5B5555"/>
<path d="M99.5 88C107.167 88 111 91.8333 111 99.5C111 107.167 107.167 111 99.5 111C91.8333 111 88 107.167 88 99.5C88 91.8333 91.8333 88 99.5 88Z" fill="#5B5555"/>
<path d="M130.5 88C138.167 88 142 91.8333 142 99.5C142 107.167 138.167 111 130.5 111C122.833 111 119 107.167 119 99.5C119 91.8333 122.833 88 130.5 88Z" fill="#5B5555"/>
<circle cx="100" cy="100" r="85" stroke="#5B5555" stroke-width="30"/>
</svg>
