<?xml version="1.0" standalone="no"?>
<!DOCTYPE svg PUBLIC "-//W3C//DTD SVG 1.1//EN" "http://www.w3.org/Graphics/SVG/1.1/DTD/svg11.dtd"><svg t="1704536336885"
    class="icon" viewBox="0 0 1024 1024" version="1.1" xmlns="http://www.w3.org/2000/svg" p-id="12953"
    xmlns:xlink="http://www.w3.org/1999/xlink" width="200" height="200">
    <path
        d="M384 224A117.333333 117.333333 0 1 1 266.666667 341.333333 117.461333 117.461333 0 0 1 384 224z m0 170.666667A53.333333 53.333333 0 1 0 330.666667 341.333333 53.376 53.376 0 0 0 384 394.666667z"
        p-id="12954" fill="#707070"></path>
    <path
        d="M640 970.666667H384c-118.186667 0-198.272-25.002667-251.946667-78.72S53.333333 758.186667 53.333333 640V384c0-118.186667 25.002667-198.272 78.72-251.946667S265.813333 53.333333 384 53.333333h128a32 32 0 0 1 32 32 32 32 0 0 1-32 32H384c-100.096 0-165.802667 19.2-206.72 59.946667S117.333333 283.904 117.333333 384v256c0 100.096 19.072 165.802667 59.946667 206.72S283.904 906.666667 384 906.666667h256c100.096 0 165.802667-19.072 206.72-59.946667S906.666667 740.096 906.666667 640v-170.666667a32 32 0 0 1 64 0v170.666667c0 118.186667-25.002667 198.272-78.72 251.946667S758.186667 970.666667 640 970.666667z"
        p-id="12955" fill="#707070"></path>
    <path
        d="M808.533333 356.693333a156.245333 156.245333 0 0 1-78.677333-32.853333 193.365333 193.365333 0 0 1-72.533333-96.085333 121.216 121.216 0 0 1 69.248-154.538667h0.213333a99.114667 99.114667 0 0 1 29.866667-4.565333 96.938667 96.938667 0 0 1 51.2 14.08 95.232 95.232 0 0 1 50.645333-14.464 99.072 99.072 0 0 1 31.189333 4.992 121.130667 121.130667 0 0 1 69.632 154.453333 193.28 193.28 0 0 1-72.149333 95.744 156.202667 156.202667 0 0 1-78.634667 33.237333z m-62.378666-222.549333a58.282667 58.282667 0 0 0-27.861334 74.197333 141.141333 141.141333 0 0 0 90.154667 84.266667 144.384 144.384 0 0 0 89.898667-84.266667 58.154667 58.154667 0 0 0-28.330667-74.197333h-0.341333a35.669333 35.669333 0 0 0-11.178667-1.877333 28.373333 28.373333 0 0 0-23.808 11.349333 32 32 0 0 1-52.522667 1.066667 31.445333 31.445333 0 0 0-25.6-12.074667 35.754667 35.754667 0 0 0-10.410666 1.536zM113.92 840.405333a31.957333 31.957333 0 0 1-26.581333-14.165333 32 32 0 0 1 8.533333-44.416l210.346667-141.226667a128.810667 128.810667 0 0 1 151.338666 8.277334l0.256 0.256 13.909334 12.245333a63.146667 63.146667 0 0 0 78.506666 0l177.493334-152.32a126.762667 126.762667 0 0 1 162.133333 0l69.546667 59.733333a32 32 0 1 1-41.685334 48.554667l-69.546666-59.733333a63.146667 63.146667 0 0 0-78.634667 0l-177.493333 152.32a126.762667 126.762667 0 0 1-162.133334 0l-0.256-0.256-13.909333-12.245334a64 64 0 0 0-73.856-3.584l-210.133333 141.226667a31.872 31.872 0 0 1-17.834667 5.333333z"
        p-id="12956" fill="#707070"></path>
</svg>