<?xml version="1.0" standalone="no"?><!DOCTYPE svg PUBLIC "-//W3C//DTD SVG 1.1//EN" "http://www.w3.org/Graphics/SVG/1.1/DTD/svg11.dtd"><svg t="1707555280936" class="icon" viewBox="0 0 1024 1024" version="1.1" xmlns="http://www.w3.org/2000/svg" p-id="4202" xmlns:xlink="http://www.w3.org/1999/xlink" width="200" height="200"><path d="M341.333333 42.666667H170.666667C99.946667 42.666667 42.666667 99.946667 42.666667 170.666667v170.666666c0 70.72 57.28 128 128 128h170.666666c70.72 0 128-57.28 128-128V170.666667c0-70.72-57.28-128-128-128z m42.666667 298.666666c0 23.573333-19.093333 42.666667-42.666667 42.666667H170.666667c-23.573333 0-42.666667-19.093333-42.666667-42.666667V170.666667c0-23.573333 19.093333-42.666667 42.666667-42.666667h170.666666c23.573333 0 42.666667 19.093333 42.666667 42.666667v170.666666zM853.333333 42.666667H682.666667c-70.72 0-128 57.28-128 128v170.666666c0 70.72 57.28 128 128 128h170.666666c70.72 0 128-57.28 128-128V170.666667c0-70.72-57.28-128-128-128z m42.666667 298.666666c0 23.573333-19.093333 42.666667-42.666667 42.666667H682.666667c-23.573333 0-42.666667-19.093333-42.666667-42.666667V170.666667c0-23.573333 19.093333-42.666667 42.666667-42.666667h170.666666c23.573333 0 42.666667 19.093333 42.666667 42.666667v170.666666z m-42.666667 213.333334H682.666667c-70.72 0-128 57.28-128 128v170.666666c0 70.72 57.28 128 128 128h170.666666c70.72 0 128-57.28 128-128V682.666667c0-70.72-57.28-128-128-128z m42.666667 298.666666c0 23.573333-19.093333 42.666667-42.666667 42.666667H682.666667c-23.573333 0-42.666667-19.093333-42.666667-42.666667V682.666667c0-23.573333 19.093333-42.666667 42.666667-42.666667h170.666666c23.573333 0 42.666667 19.093333 42.666667 42.666667v170.666666zM341.333333 554.666667H170.666667C99.946667 554.666667 42.666667 611.946667 42.666667 682.666667v170.666666c0 70.72 57.28 128 128 128h170.666666c70.72 0 128-57.28 128-128V682.666667c0-70.72-57.28-128-128-128z m42.666667 298.666666c0 23.573333-19.093333 42.666667-42.666667 42.666667H170.666667c-23.573333 0-42.666667-19.093333-42.666667-42.666667V682.666667c0-23.573333 19.093333-42.666667 42.666667-42.666667h170.666666c23.573333 0 42.666667 19.093333 42.666667 42.666667v170.666666z" p-id="4203" fill="#707070"></path></svg>