<svg width="16.000000" height="16.000000" viewBox="0 0 16 16" fill="none" xmlns="http://www.w3.org/2000/svg" xmlns:xlink="http://www.w3.org/1999/xlink">
	<desc>
			Created with Pixso.
	</desc>
	<g clip-path="url(#clip441_3100)">
		<path d="M6 1.5C6 1.354 6.04688 1.23417 6.1405 1.1405C6.23413 1.04683 6.354 1 6.5 1C6.646 1 6.76587 1.04683 6.8595 1.1405C6.95312 1.23417 7 1.354 7 1.5L7 13.797C7 13.9013 6.97131 13.9925 6.91394 14.0705C6.85669 14.1485 6.78113 14.2083 6.6875 14.25C6.59387 14.2917 6.49744 14.3022 6.39844 14.2815C6.29944 14.2608 6.2135 14.214 6.1405 14.141L1.5 9.5005C1.40637 9.40683 1.3595 9.28967 1.3595 9.149C1.3595 9.00833 1.40637 8.89117 1.5 8.7975C1.60437 8.69317 1.72156 8.641 1.85144 8.641C1.98145 8.641 2.09863 8.69317 2.203 8.7975L6 12.5945L6 1.5005L6 1.5ZM9 2.203C9 2.09867 9.02869 2.0075 9.08594 1.9295C9.14331 1.8515 9.21887 1.79167 9.3125 1.75C9.40613 1.70833 9.50244 1.69783 9.60144 1.7185C9.70044 1.73917 9.7865 1.786 9.8595 1.859L14.5 6.4995C14.5936 6.59317 14.6405 6.71033 14.6405 6.851C14.6405 6.99166 14.5936 7.10883 14.5 7.2025C14.3956 7.30683 14.2784 7.359 14.1484 7.359C14.0186 7.359 13.9014 7.30683 13.797 7.2025L10 3.4055L10 14.4995C10 14.6455 9.95312 14.7653 9.8595 14.859C9.76587 14.9527 9.646 14.9995 9.5 14.9995C9.354 14.9995 9.23413 14.9527 9.1405 14.859C9.04688 14.7653 9 14.6455 9 14.4995L9 2.2025L9 2.203Z" fill-rule="nonzero" fill="#08080A" fill-opacity="0.960000"/>
	</g>
	<defs>
		<clipPath id="clip441_3100">
			<rect width="16.000000" height="16.000000" fill="white"/>
		</clipPath>
	</defs>
</svg>
