<svg xmlns="http://www.w3.org/2000/svg" width="512" height="512" viewBox="0 0 24 24">
    <path fill="#707070" d="M13.527 5.693a32 32 0 0 1 2.424 2.194a32 32 0 0 1 2.193 2.424a17.5 17.5 0 0 0 1.379-2.499c.454-1.033.681-1.914.71-2.598c.029-.682-.14-1.059-.346-1.264s-.582-.374-1.264-.345c-.683.028-1.564.255-2.598.71a17.6 17.6 0 0 0-2.498 1.378M11.839 4.42c1.163-.81 2.306-1.463 3.38-1.936c1.168-.513 2.302-.835 3.32-.878c1.02-.042 2.028.195 2.763.93s.972 1.743.93 2.762c-.044 1.018-.365 2.153-.879 3.32c-.472 1.074-1.126 2.217-1.935 3.38c.81 1.164 1.463 2.307 1.936 3.382c.513 1.167.835 2.302.878 3.32c.042 1.018-.195 2.027-.93 2.762s-1.743.972-2.762.93c-1.018-.043-2.153-.365-3.32-.879c-1.074-.472-2.218-1.126-3.381-1.936c-1.163.81-2.307 1.464-3.381 1.936c-1.167.514-2.302.835-3.32.878c-1.019.043-2.028-.194-2.762-.93c-.735-.734-.973-1.743-.93-2.762c.043-1.017.365-2.152.878-3.32c.473-1.074 1.127-2.217 1.936-3.38c-.809-1.164-1.463-2.307-1.935-3.381c-.514-1.167-.835-2.302-.878-3.32c-.043-1.019.194-2.027.93-2.762c.734-.735 1.743-.972 2.762-.93c1.017.043 2.152.365 3.32.878c1.073.473 2.217 1.127 3.38 1.936m-6.305 5.89a32 32 0 0 1 2.192-2.423a32 32 0 0 1 2.425-2.194a17.5 17.5 0 0 0-2.498-1.378c-1.034-.455-1.915-.682-2.598-.71c-.682-.029-1.06.14-1.265.345s-.374.582-.345 1.264c.029.684.256 1.565.71 2.598a17.5 17.5 0 0 0 1.379 2.499m1.212 1.688a30 30 0 0 0 2.395 2.699a30 30 0 0 0 2.698 2.395a30 30 0 0 0 2.698-2.395a30 30 0 0 0 2.395-2.699a30 30 0 0 0-2.395-2.697a30 30 0 0 0-2.698-2.396A30 30 0 0 0 9.14 9.301a30 30 0 0 0-2.395 2.697m-1.212 1.688a17.5 17.5 0 0 0-1.38 2.5c-.454 1.033-.68 1.914-.71 2.597c-.028.682.14 1.06.346 1.265s.582.374 1.264.345c.683-.029 1.565-.256 2.598-.71a17.5 17.5 0 0 0 2.5-1.38a32 32 0 0 1-2.425-2.192a32 32 0 0 1-2.193-2.425m7.993 4.618a17.5 17.5 0 0 0 2.499 1.379c1.033.454 1.915.681 2.598.71s1.059-.14 1.264-.345c.205-.206.374-.583.345-1.265c-.028-.683-.255-1.564-.71-2.598a17.5 17.5 0 0 0-1.379-2.499a32 32 0 0 1-2.193 2.425a32 32 0 0 1-2.424 2.193M11 11h2.004v2.004H11z" />
</svg>