<?xml version="1.0" standalone="no"?><!DOCTYPE svg PUBLIC "-//W3C//DTD SVG 1.1//EN" "http://www.w3.org/Graphics/SVG/1.1/DTD/svg11.dtd"><svg t="1708169737013" class="icon" viewBox="0 0 1024 1024" version="1.1" xmlns="http://www.w3.org/2000/svg" p-id="6245" xmlns:xlink="http://www.w3.org/1999/xlink" width="200" height="200"><path d="M962.56 695.466667L635.306667 152.746667a146.346667 146.346667 0 0 0-246.613334 0L61.44 695.466667a128 128 0 0 0-2.133333 128A143.786667 143.786667 0 0 0 184.746667 896h654.506666a143.786667 143.786667 0 0 0 125.44-70.826667 128 128 0 0 0-2.133333-129.706666zM512 725.333333a42.666667 42.666667 0 1 1 42.666667-42.666666 42.666667 42.666667 0 0 1-42.666667 42.666666z m42.666667-170.666666a42.666667 42.666667 0 0 1-85.333334 0V384a42.666667 42.666667 0 0 1 85.333334 0z" fill="#FCE38A" p-id="6246"></path></svg>