<?xml version="1.0" standalone="no"?><!DOCTYPE svg PUBLIC "-//W3C//DTD SVG 1.1//EN" "http://www.w3.org/Graphics/SVG/1.1/DTD/svg11.dtd"><svg t="1704539706301" class="icon" viewBox="0 0 1024 1024" version="1.1" xmlns="http://www.w3.org/2000/svg" p-id="18680" xmlns:xlink="http://www.w3.org/1999/xlink" width="200" height="200"><path d="M462.890667 172.074667a85.333333 85.333333 0 0 1 98.218666 0l256 180.138666A85.333333 85.333333 0 0 1 853.333333 422.016V768a85.333333 85.333333 0 0 1-85.333333 85.333333h-85.333333v-256a128 128 0 0 0-128-128h-85.333334a128 128 0 0 0-128 128v256H256a85.333333 85.333333 0 0 1-85.333333-85.333333V421.973333a85.333333 85.333333 0 0 1 36.224-69.76l256-180.138666zM426.666667 853.333333v-256a42.666667 42.666667 0 0 1 42.666666-42.666666h85.333334a42.666667 42.666667 0 0 1 42.666666 42.666666v256h-170.666666z m183.552-751.061333a170.666667 170.666667 0 0 0-196.437334 0l-256 180.138667A170.666667 170.666667 0 0 0 85.333333 422.016V768a170.666667 170.666667 0 0 0 170.666667 170.666667h512a170.666667 170.666667 0 0 0 170.666667-170.666667V421.973333a170.666667 170.666667 0 0 0-72.448-139.52l-256-180.181333z" fill="#707070" p-id="18681"></path></svg>