<?xml version="1.0" standalone="no"?><!DOCTYPE svg PUBLIC "-//W3C//DTD SVG 1.1//EN" "http://www.w3.org/Graphics/SVG/1.1/DTD/svg11.dtd"><svg t="1704472378891" class="icon" viewBox="0 0 1024 1024" version="1.1" xmlns="http://www.w3.org/2000/svg" p-id="7468" xmlns:xlink="http://www.w3.org/1999/xlink" width="200" height="200"><path d="M699.733333 740.992a42.666667 42.666667 0 0 1 41.984 74.325333l-208.725333 117.845334a42.666667 42.666667 0 0 1-41.984 0l-341.333333-192.725334a42.666667 42.666667 0 0 1-21.674667-37.12V320.682667a42.666667 42.666667 0 0 1 21.674667-37.162667l341.333333-192.725333a42.666667 42.666667 0 0 1 41.984 0l341.333333 192.725333a42.666667 42.666667 0 0 1 21.674667 37.12v382.592a42.666667 42.666667 0 1 1-85.333333 0V345.6l-298.666667-168.618667L213.333333 345.6v332.8l298.666667 168.618667 187.733333-106.026667zM341.333333 512a42.666667 42.666667 0 0 1 85.333334 0 85.333333 85.333333 0 1 0 85.333333-85.333333 42.666667 42.666667 0 0 1 0-85.333334 170.666667 170.666667 0 1 1-170.666667 170.666667z" p-id="7469" fill="#707070"></path></svg>