<svg width="24.000000" height="24.000000" viewBox="0 0 24 24" fill="none" xmlns="http://www.w3.org/2000/svg" xmlns:xlink="http://www.w3.org/1999/xlink">
	<desc>
			Created with Pixso.
	</desc>
	<path d="M3.10187 11.1948C3.30835 10.9761 3.44531 10.7051 3.5094 10.417C3.57428 10.1211 3.56335 9.81299 3.47314 9.5249L2.81732 7.50537C2.71204 7.18115 2.77917 6.82568 2.99536 6.56201L4.13586 5.17188C4.33978 4.92334 4.65076 4.78809 4.97156 4.80859L7.2207 4.94971C7.83264 4.99268 8.40918 4.75049 8.75604 4.25537L10.0271 2.42871C10.2141 2.16016 10.5206 2 10.8479 2L12.653 2C12.9791 2 13.2847 2.15918 13.4719 2.42578L14.7297 4.22021C14.9037 4.46875 15.1393 4.6626 15.4078 4.78857M5.52563 18.1401C5.47882 17.8438 5.35242 17.5713 5.16571 17.3447C4.97943 17.1191 4.73328 16.9399 4.44836 16.8296L2.40656 16.0815C2.09265 15.9663 1.85699 15.7021 1.77856 15.377L1.37598 13.709C1.2973 13.3828 1.38733 13.0391 1.61572 12.7935L3.10187 11.1948C3.30707 10.9746 3.44531 10.7021 3.50983 10.4141C3.57343 10.1221 3.56207 9.81348 3.47314 9.5249M11.7471 20.4492C11.4512 20.4497 11.1553 20.5239 10.8903 20.6729L8.97644 21.7437C8.69641 21.9004 8.35815 21.9131 8.06708 21.7783L6.43915 21.0225C6.13849 20.8828 5.92651 20.603 5.87329 20.2759L5.52563 18.1401C5.47675 17.8447 5.35071 17.5713 5.16571 17.3447M19.9716 10.3677C20.0424 10.6484 20.1883 10.9126 20.3973 11.1338L21.8923 12.7529C22.1162 12.9951 22.2061 13.3325 22.1326 13.6538L21.7469 15.3423C21.6733 15.665 21.4449 15.9302 21.137 16.0508L19.074 16.8594C18.7908 16.9707 18.5475 17.1509 18.3643 17.377C18.1788 17.605 18.0536 17.8799 18.0085 18.1777L17.6971 20.2529C17.6478 20.5811 17.4387 20.8638 17.1392 21.0068L15.519 21.7808C15.2304 21.9185 14.8932 21.9102 14.6119 21.7578L12.6085 20.6729C12.48 20.6021 12.3442 20.5474 12.2048 20.5098C12.0547 20.4697 11.9009 20.4492 11.7471 20.4492C11.5684 20.4487 11.3896 20.4756 11.2181 20.5298C11.1052 20.5659 10.9952 20.6133 10.8903 20.6729M18.3643 17.377C18.1796 17.605 18.0553 17.8804 18.0085 18.1777M14.7297 4.22021C14.9045 4.46777 15.1397 4.66211 15.4078 4.78857C15.6741 4.91406 15.9729 4.97217 16.2776 4.94971L18.5009 4.78662C18.8248 4.76318 19.1401 4.89795 19.3464 5.14893L20.4589 6.50195C20.6729 6.76221 20.7414 7.11328 20.6411 7.43506L19.9944 9.50732C19.9063 9.79346 19.9021 10.0889 19.9716 10.3677C20.0092 10.5171 20.0677 10.6621 20.1461 10.7979C20.2148 10.9175 20.2991 11.0308 20.3973 11.1338M15.4078 4.78857C15.6741 4.91309 15.9733 4.97119 16.2776 4.94971M11.6834 15.3872C9.77679 15.3872 8.2309 13.8755 8.2309 12.0107C8.2309 10.1455 9.77679 8.63379 11.6834 8.63379C13.59 8.63379 15.1359 10.1455 15.1359 12.0107C15.1359 13.8755 13.59 15.3872 11.6834 15.3872L11.6834 15.3872M12.6085 20.6729C12.3417 20.5234 12.0442 20.4487 11.7471 20.4492M19.074 16.8594C18.7895 16.9692 18.5471 17.1499 18.3643 17.377M5.16571 17.3447L5.16272 17.3418C5.15051 17.3267 5.13745 17.3115 5.12482 17.2969M3.5094 10.417L3.51025 10.4126M3.5094 10.417L3.50983 10.4141M7.2207 4.94971C7.83264 4.99463 8.40747 4.74902 8.75604 4.25537" stroke="#000000" stroke-width="2.000000"/>
	<defs/>
</svg>
