<svg xmlns="http://www.w3.org/2000/svg" viewBox="0 0 23.09 23.09"><defs><style>.cls-1{fill:#7aba78;}.cls-2{fill:#fff;stroke:#7aba78;stroke-linecap:round;stroke-linejoin:round;stroke-width:0.25px;}</style></defs><g id="Layer_2" data-name="Layer 2"><g id="Layer_4" data-name="Layer 4"><rect class="cls-1" width="23.09" height="23.09" rx="1.92"/><path class="cls-2" d="M11.54,14.12a5.86,5.86,0,0,1-5.22-1,5.48,5.48,0,0,1-1.15-1.29,6.06,6.06,0,0,1-.88-3.6A5.92,5.92,0,0,1,9,8.89a5.12,5.12,0,0,0,0,.56A5.86,5.86,0,0,0,11.54,14.12Z"/><path class="cls-2" d="M11.54,14.12a5.83,5.83,0,0,1-4.67,2.53,5.85,5.85,0,0,1-4.65-2.53,6.08,6.08,0,0,1,2.95-2.25,5.48,5.48,0,0,0,1.15,1.29A5.86,5.86,0,0,0,11.54,14.12Z"/><path class="cls-2" d="M14,8.89l-.45.33a5.85,5.85,0,0,0-2.05,4.9A5.86,5.86,0,0,1,9,9.45a5.12,5.12,0,0,1,0-.56,5.93,5.93,0,0,1,2.5-4.09A5.9,5.9,0,0,1,14,8.89Z"/><path class="cls-2" d="M17.91,11.87a5.26,5.26,0,0,0-1.7-.28,5.83,5.83,0,0,0-4.67,2.53,5.85,5.85,0,0,1,2.05-4.9L14,8.89a6,6,0,0,1,4.76-.62A6.19,6.19,0,0,1,17.91,11.87Z"/><path class="cls-2" d="M11.54,14.12a5.86,5.86,0,0,1-5.22-1,5.48,5.48,0,0,1-1.15-1.29,6.06,6.06,0,0,1-.88-3.6A5.92,5.92,0,0,1,9,8.89a5.12,5.12,0,0,0,0,.56A5.86,5.86,0,0,0,11.54,14.12Z"/><path class="cls-2" d="M14,8.89l-.45.33a5.85,5.85,0,0,0-2.05,4.9A5.86,5.86,0,0,1,9,9.45a5.12,5.12,0,0,1,0-.56,5.93,5.93,0,0,1,2.5-4.09A5.9,5.9,0,0,1,14,8.89Z"/><path class="cls-2" d="M17.91,11.87a5.26,5.26,0,0,0-1.7-.28,5.83,5.83,0,0,0-4.67,2.53,5.85,5.85,0,0,1,2.05-4.9L14,8.89a6,6,0,0,1,4.76-.62A6.19,6.19,0,0,1,17.91,11.87Z"/><path class="cls-2" d="M20.86,14.12a5.83,5.83,0,0,1-4.65,2.53,5.83,5.83,0,0,1-4.67-2.53,5.83,5.83,0,0,1,4.67-2.53,5.26,5.26,0,0,1,1.7.28A6.14,6.14,0,0,1,20.86,14.12Z"/></g></g></svg>