<?xml version="1.0" standalone="no"?><!DOCTYPE svg PUBLIC "-//W3C//DTD SVG 1.1//EN" "http://www.w3.org/Graphics/SVG/1.1/DTD/svg11.dtd"><svg t="1704772480335" class="icon" viewBox="0 0 1024 1024" version="1.1" xmlns="http://www.w3.org/2000/svg" p-id="8866" xmlns:xlink="http://www.w3.org/1999/xlink" width="200" height="200"><path d="M512 85.333333a426.666667 426.666667 0 0 0-293.546667 118.186667V128a42.666667 42.666667 0 0 0-85.333333 0v192a42.666667 42.666667 0 0 0 42.666667 42.666667h192a42.666667 42.666667 0 0 0 0-85.333334h-102.4A341.333333 341.333333 0 1 1 170.666667 512a42.666667 42.666667 0 0 0-85.333334 0A426.666667 426.666667 0 1 0 512 85.333333z m0 256a42.666667 42.666667 0 0 0-42.666667 42.666667v128a42.666667 42.666667 0 0 0 42.666667 42.666667h85.333333a42.666667 42.666667 0 0 0 0-85.333334h-42.666666V384a42.666667 42.666667 0 0 0-42.666667-42.666667z" p-id="8867" fill="#707070"></path></svg>