<?xml version="1.0" standalone="no"?><!DOCTYPE svg PUBLIC "-//W3C//DTD SVG 1.1//EN" "http://www.w3.org/Graphics/SVG/1.1/DTD/svg11.dtd"><svg t="1704413406960" class="icon" viewBox="0 0 1024 1024" version="1.1" xmlns="http://www.w3.org/2000/svg" p-id="5037" xmlns:xlink="http://www.w3.org/1999/xlink" width="200" height="200"><path d="M687.84835 981.326685a42.660943 42.660943 0 0 1-19.624034-80.629182 341.287544 341.287544 0 0 0 170.643772-206.052355l-76.363088-29.43605a42.660943 42.660943 0 0 1 30.715879-79.775964l94.280684 36.261802a64.418024 64.418024 0 0 1 39.674677 74.230041 426.60943 426.60943 0 0 1-218.424028 280.282395 42.660943 42.660943 0 0 1-20.903862 5.119313z m-133.102142 0V275.714688a123.716735 123.716735 0 0 0-62.711586-110.065233A42.660943 42.660943 0 1 1 554.746208 128.107826a42.660943 42.660943 0 0 0 85.321886 0 127.982829 127.982829 0 1 0-188.561368 112.624889 39.248068 39.248068 0 0 1 17.917596 34.981973v660.391398a337.874668 337.874668 0 0 1-283.268662-241.034328l77.642917-29.436051a42.660943 42.660943 0 1 0-30.28927-79.775963L139.228623 622.121545a63.991414 63.991414 0 0 0-42.660943 74.230041A423.196554 423.196554 0 0 0 512.085265 1023.987628a42.660943 42.660943 0 0 0 42.660943-42.660943z m-386.081534-279.429176zM426.763379 384.073483a42.660943 42.660943 0 0 0-42.660943-42.660943h-42.660943a42.660943 42.660943 0 1 0 0 85.321886h42.660943a42.660943 42.660943 0 0 0 42.660943-42.660943z m298.626601 0a42.660943 42.660943 0 0 0-42.660943-42.660943h-42.660943a42.660943 42.660943 0 0 0 0 85.321886h42.660943a42.660943 42.660943 0 0 0 42.660943-42.660943z" fill="#515151" p-id="5038"></path></svg>