<?xml version="1.0" standalone="no"?><!DOCTYPE svg PUBLIC "-//W3C//DTD SVG 1.1//EN"
        "http://www.w3.org/Graphics/SVG/1.1/DTD/svg11.dtd">
<svg t="1714831000831" class="icon" viewBox="0 0 1024 1024" version="1.1" xmlns="http://www.w3.org/2000/svg" p-id="4263"
     width="512" height="512">
    <path d="M511.69 953.68c-220.26 0-398.79-178.54-398.79-398.8 0-220 178.19-398.45 398.16-398.79a0.63 0.63 0 0 0 0.63-0.63V91.34c0-20.27 23.14-31.84 39.36-19.68l162.29 121.73a24.59 24.59 0 0 1 0 39.35L551.05 354.46c-16.22 12.16-39.36 0.59-39.36-19.68v-64.11a0.64 0.64 0 0 0-0.64-0.64c-155.28 0.35-281.36 124.89-284.16 279.58C224 710.48 356.13 842.62 517 839.69c154.9-2.83 279.56-129.24 279.56-284.81 0-67.65 113.94-70 113.94 0 0 220.26-178.53 398.8-398.8 398.8z m0 0"
          p-id="4264" fill="#707070"></path>
</svg>