<?xml version="1.0" standalone="no"?><!DOCTYPE svg PUBLIC "-//W3C//DTD SVG 1.1//EN" "http://www.w3.org/Graphics/SVG/1.1/DTD/svg11.dtd"><svg t="1707876787270" class="icon" viewBox="0 0 1024 1024" version="1.1" xmlns="http://www.w3.org/2000/svg" p-id="6629" xmlns:xlink="http://www.w3.org/1999/xlink" width="200" height="200"><path d="M443.733333 674.133333c-17.066667 12.8-38.4 8.533333-51.2-4.266666-8.533333-17.066667-8.533333-34.133333-8.533333-51.2V396.8c0-12.8 0-25.6 8.533333-38.4 4.266667-8.533333 12.8-12.8 21.333334-17.066667 8.533333 0 21.333333 0 25.6 4.266667l183.466666 128c17.066667 12.8 21.333333 34.133333 8.533334 51.2l-8.533334 8.533333-179.2 140.8zM512 42.666667C251.733333 42.666667 42.666667 251.733333 42.666667 512s209.066667 469.333333 469.333333 469.333333 469.333333-209.066667 469.333333-469.333333S772.266667 42.666667 512 42.666667" p-id="6630" fill="#707070"></path></svg>